<svg xmlns="http://www.w3.org/2000/svg" width="382" height="234" viewBox="0 0 382 234">
  <g id="Logo" transform="translate(1)">
    <path id="Differenzmenge_1" data-name="Differenzmenge 1" d="M1398.673,4988.518h0a62.418,62.418,0,0,1-3-73.961,62.675,62.675,0,0,1,27.5-22.645,62.417,62.417,0,0,1,59.608,5.992,62.971,62.971,0,0,1,9.294,7.787,53.052,53.052,0,0,0-19.352,28.856,53.14,53.14,0,0,0-32,28.555,53.069,53.069,0,0,0-42.049,25.416Z" transform="translate(-1349 -4835)" fill="#fdcc79" style="mix-blend-mode: darken;isolation: isolate"/>
    <path id="Differenzmenge_2" data-name="Differenzmenge 2" d="M1405.584,4995.861h0a62.672,62.672,0,0,1-15.032-20.572,62.156,62.156,0,0,1-4.113-12.395A62.9,62.9,0,0,1,1385,4949.5a62.209,62.209,0,0,1,10.674-34.945,62.676,62.676,0,0,1,27.5-22.644,62.419,62.419,0,0,1,59.272,5.762,62.681,62.681,0,0,1,22.644,27.5A62.11,62.11,0,0,1,1510,4949.5a63.087,63.087,0,0,1-.924,10.766,53.02,53.02,0,0,0-86.353,26.279,52.71,52.71,0,0,0-17.138,9.315Z" transform="translate(-1299 -4887)" fill="#80b7f7" style="mix-blend-mode: darken;isolation: isolate"/>
    <path id="Differenzmenge_3" data-name="Differenzmenge 3" d="M1507.908,5005.686a52.569,52.569,0,0,0-16.91-5.229v-.048c0-.136,0-.272,0-.409a53.031,53.031,0,0,0-72.984-49.1c-.011-.483-.015-.953-.015-1.4a62.205,62.205,0,0,1,10.674-34.943,62.674,62.674,0,0,1,27.5-22.645,62.422,62.422,0,0,1,59.273,5.762,62.691,62.691,0,0,1,22.644,27.5,62.534,62.534,0,0,1-30.181,80.514Z" transform="translate(-1263 -4887)" fill="#72d0b6" style="mix-blend-mode: darken;isolation: isolate"/>
    <path id="Differenzmenge_4" data-name="Differenzmenge 4" d="M1536,5010.31h0a53.407,53.407,0,0,0,1-10.309,53.011,53.011,0,0,0-46-52.542v-.045c0-.138,0-.275,0-.413a52.767,52.767,0,0,0-9.712-30.587,53.411,53.411,0,0,0-6.917-7.964,62.7,62.7,0,0,1,20.809-15.653,62.14,62.14,0,0,1,12.634-4.292,62.865,62.865,0,0,1,13.686-1.5,62.214,62.214,0,0,1,34.945,10.674,62.683,62.683,0,0,1,22.644,27.5A62.536,62.536,0,0,1,1536,5010.31Z" transform="translate(-1263 -4834)" fill="#fa9e8b" style="mix-blend-mode: darken;isolation: isolate"/>
    <text id="klasse.cloud" transform="translate(190 219)" fill="#38ac87" font-size="70" font-family="Lato-Bold, Lato" font-weight="700"><tspan x="-190.208" y="0">klasse.</tspan><tspan y="0" fill="#fbbd08">cloud</tspan></text>
  </g>
</svg>
